<svg width="36" height="36" viewBox="0 0 36 36" fill="none" xmlns="http://www.w3.org/2000/svg">
<path d="M15.8655 13.0562C16.815 11.3522 17.2905 10.5002 18 10.5002C18.7095 10.5002 19.185 11.3522 20.1345 13.0562L20.3805 13.4972C20.6505 13.9817 20.7855 14.2232 20.9955 14.3822C21.2055 14.5427 21.4695 14.6027 21.993 14.7212L22.47 14.8292C24.315 15.2462 25.2375 15.4547 25.4565 16.1612C25.677 16.8662 25.047 17.6012 23.79 19.0727L23.4645 19.4537C23.1075 19.8707 22.929 20.0807 22.8495 20.3387C22.767 20.5967 22.794 20.8757 22.8495 21.4337L22.8975 21.9407C23.088 23.9027 23.1825 24.8837 22.608 25.3202C22.0335 25.7552 21.171 25.3592 19.443 24.5642L18.996 24.3572C18.5055 24.1322 18.261 24.0182 18 24.0182C17.7405 24.0182 17.4945 24.1322 17.004 24.3572L16.557 24.5642C14.829 25.3592 13.9665 25.7567 13.392 25.3202C12.8175 24.8852 12.912 23.9027 13.1025 21.9407L13.1505 21.4337C13.206 20.8757 13.233 20.5967 13.1505 20.3387C13.071 20.0807 12.8925 19.8707 12.5355 19.4537L12.21 19.0727C10.953 17.6027 10.323 16.8677 10.5435 16.1612C10.7625 15.4562 11.6835 15.2462 13.5285 14.8292L14.007 14.7212C14.532 14.6012 14.793 14.5427 15.0045 14.3837C15.2145 14.2232 15.3495 13.9817 15.6195 13.4987L15.8655 13.0562Z" fill="white"/>
<path fill-rule="evenodd" clip-rule="evenodd" d="M18 1.87524C18.2984 1.87524 18.5845 1.99377 18.7955 2.20475C19.0065 2.41573 19.125 2.70188 19.125 3.00024V6.00024C19.125 6.29861 19.0065 6.58476 18.7955 6.79574C18.5845 7.00672 18.2984 7.12524 18 7.12524C17.7016 7.12524 17.4155 7.00672 17.2045 6.79574C16.9935 6.58476 16.875 6.29861 16.875 6.00024V3.00024C16.875 2.70188 16.9935 2.41573 17.2045 2.20475C17.4155 1.99377 17.7016 1.87524 18 1.87524ZM27.795 8.20524C28.0057 8.41618 28.124 8.70212 28.124 9.00024C28.124 9.29837 28.0057 9.58431 27.795 9.79524L27.2805 10.3097C27.0672 10.5085 26.7852 10.6166 26.4937 10.6115C26.2023 10.6064 25.9242 10.4883 25.7181 10.2822C25.5119 10.0761 25.3939 9.79798 25.3887 9.50653C25.3836 9.21508 25.4918 8.93301 25.6905 8.71974L26.205 8.20524C26.4159 7.99457 26.7019 7.87623 27 7.87623C27.2981 7.87623 27.5841 7.99457 27.795 8.20524ZM8.205 8.20524C8.41594 7.99457 8.70187 7.87623 9 7.87623C9.29813 7.87623 9.58406 7.99457 9.795 8.20524L10.311 8.71974C10.5158 8.93202 10.6291 9.21625 10.6264 9.51122C10.6237 9.80619 10.5052 10.0883 10.2966 10.2968C10.0879 10.5053 9.80565 10.6235 9.51068 10.6259C9.21571 10.6283 8.93158 10.5148 8.7195 10.3097L8.205 9.79524C7.99432 9.58431 7.87599 9.29837 7.87599 9.00024C7.87599 8.70212 7.99432 8.41618 8.205 8.20524ZM1.875 18.0002C1.875 17.7019 1.99353 17.4157 2.2045 17.2048C2.41548 16.9938 2.70163 16.8752 3 16.8752H6C6.29837 16.8752 6.58452 16.9938 6.7955 17.2048C7.00647 17.4157 7.125 17.7019 7.125 18.0002C7.125 18.2986 7.00647 18.5848 6.7955 18.7957C6.58452 19.0067 6.29837 19.1252 6 19.1252H3C2.70163 19.1252 2.41548 19.0067 2.2045 18.7957C1.99353 18.5848 1.875 18.2986 1.875 18.0002ZM28.875 18.0002C28.875 17.7019 28.9935 17.4157 29.2045 17.2048C29.4155 16.9938 29.7016 16.8752 30 16.8752H33C33.2984 16.8752 33.5845 16.9938 33.7955 17.2048C34.0065 17.4157 34.125 17.7019 34.125 18.0002C34.125 18.2986 34.0065 18.5848 33.7955 18.7957C33.5845 19.0067 33.2984 19.1252 33 19.1252H30C29.7016 19.1252 29.4155 19.0067 29.2045 18.7957C28.9935 18.5848 28.875 18.2986 28.875 18.0002ZM10.3095 25.6907C10.5202 25.9017 10.6385 26.1876 10.6385 26.4857C10.6385 26.7839 10.5202 27.0698 10.3095 27.2807L9.795 27.7952C9.58174 27.994 9.29967 28.1021 9.00822 28.097C8.71676 28.0919 8.43869 27.9738 8.23257 27.7677C8.02645 27.5616 7.90838 27.2835 7.90324 26.992C7.8981 26.7006 8.00628 26.4185 8.205 26.2052L8.7195 25.6907C8.93044 25.4801 9.21637 25.3617 9.5145 25.3617C9.81263 25.3617 10.0986 25.4801 10.3095 25.6907ZM25.689 25.6907C25.7935 25.5862 25.9175 25.5033 26.0541 25.4467C26.1906 25.3901 26.337 25.361 26.4847 25.361C26.6325 25.361 26.7789 25.3901 26.9154 25.4467C27.052 25.5033 27.176 25.5862 27.2805 25.6907L27.795 26.2052C27.9937 26.4185 28.1019 26.7006 28.0968 26.992C28.0916 27.2835 27.9736 27.5616 27.7674 27.7677C27.5613 27.9738 27.2832 28.0919 26.9918 28.097C26.7003 28.1021 26.4183 27.994 26.205 27.7952L25.6905 27.2807C25.4798 27.0698 25.3615 26.7839 25.3615 26.4857C25.3615 26.1876 25.4798 25.9017 25.6905 25.6907M18 28.8752C18.2984 28.8752 18.5845 28.9938 18.7955 29.2047C19.0065 29.4157 19.125 29.7019 19.125 30.0002V33.0002C19.125 33.2986 19.0065 33.5848 18.7955 33.7957C18.5845 34.0067 18.2984 34.1252 18 34.1252C17.7016 34.1252 17.4155 34.0067 17.2045 33.7957C16.9935 33.5848 16.875 33.2986 16.875 33.0002V30.0002C16.875 29.7019 16.9935 29.4157 17.2045 29.2047C17.4155 28.9938 17.7016 28.8752 18 28.8752Z" fill="white"/>
</svg>
